<?xml version="1.0" standalone="no"?>
<!DOCTYPE svg PUBLIC "-//W3C//DTD SVG 20010904//EN"
 "http://www.w3.org/TR/2001/REC-SVG-20010904/DTD/svg10.dtd">
<svg version="1.0" xmlns="http://www.w3.org/2000/svg"
 width="1600.000000pt" height="1600.000000pt" viewBox="0 0 1600.000000 1600.000000"
 preserveAspectRatio="xMidYMid meet">
<metadata>
Created by potrace 1.14, written by Peter Selinger 2001-2017
</metadata>
<g transform="translate(0.000000,1600.000000) scale(0.100000,-0.100000)"
fill="#000000" stroke="none">
<path d="M6590 13034 c-602 -526 -1265 -1105 -1472 -1286 -390 -340 -468 -420
-553 -565 -95 -160 -153 -328 -175 -505 -8 -67 -10 -673 -8 -2148 l3 -2055 27
-51 c34 -65 123 -147 185 -170 41 -15 92 -18 355 -22 184 -2 341 1 394 7 112
14 210 58 278 127 94 94 84 36 205 1125 l108 974 50 100 c203 403 479 1033
586 1340 25 72 80 218 122 325 97 243 185 508 221 665 24 104 28 141 28 275 0
180 -14 234 -86 314 -116 132 -262 120 -414 -33 -133 -135 -235 -302 -459
-751 -75 -151 -162 -319 -193 -373 -49 -85 -57 -95 -63 -75 -4 13 -29 231 -55
485 -44 420 -47 464 -32 475 8 7 132 105 274 218 569 451 832 677 1125 970
292 290 451 482 585 700 186 304 234 588 134 783 -26 50 -63 107 -70 107 -3 0
-498 -431 -1100 -956z"/>
<path d="M8271 13939 c-54 -83 -74 -151 -79 -269 -3 -82 0 -124 17 -191 72
-306 330 -672 787 -1119 303 -296 516 -477 1201 -1019 l181 -144 9 -86 c14
-150 8 -445 -11 -556 -18 -100 -65 -259 -89 -303 l-14 -24 -15 24 c-8 12 -100
178 -203 368 -306 562 -411 727 -535 844 -83 78 -138 106 -210 106 -99 0 -193
-71 -234 -176 -24 -64 -32 -235 -16 -346 28 -194 124 -512 250 -828 32 -80 81
-212 110 -295 116 -330 383 -945 593 -1360 l50 -100 108 -974 c121 -1089 111
-1031 205 -1125 68 -69 166 -113 278 -127 53 -6 210 -9 394 -7 263 4 314 7
355 22 61 23 145 100 182 168 l30 53 0 2105 c0 1976 -1 2110 -18 2187 -54 252
-181 490 -351 658 -61 61 -2920 2558 -2934 2563 -4 1 -22 -21 -41 -49z"/>
<path d="M11650 13270 c55 -103 366 -567 453 -675 70 -88 147 -148 337 -263
124 -75 350 -197 350 -189 0 16 -111 261 -166 367 -177 338 -319 478 -657 643
-113 55 -305 137 -322 137 -3 0 -1 -9 5 -20z"/>
<path d="M4145 13176 c-326 -136 -528 -251 -637 -363 -145 -149 -292 -395
-363 -605 -34 -104 -42 -138 -28 -138 13 0 143 76 251 148 326 217 550 444
809 817 104 151 138 205 126 204 -4 0 -75 -29 -158 -63z"/>
<path d="M12831 12778 c50 -128 81 -194 118 -256 52 -87 65 -125 101 -301 44
-212 74 -314 131 -453 91 -218 123 -317 110 -344 -29 -64 -149 -3 -321 163
-128 122 -161 145 -359 252 -179 97 -369 217 -461 290 -41 33 -76 58 -79 56
-6 -6 37 -121 71 -190 47 -95 133 -218 196 -282 31 -32 107 -92 167 -134 61
-41 263 -187 450 -324 321 -235 483 -371 523 -437 9 -16 21 -28 26 -28 17 0
-8 760 -34 1050 -27 292 -62 381 -236 590 -97 117 -392 400 -417 400 -4 0 3
-24 14 -52z"/>
<path d="M3084 12764 c-186 -125 -364 -287 -455 -417 -133 -188 -171 -333
-189 -722 -6 -121 -20 -287 -31 -370 -16 -108 -20 -176 -16 -245 6 -94 35
-250 46 -250 3 1 22 26 41 57 46 73 236 267 322 327 37 26 151 97 255 157 103
61 215 130 248 154 173 124 326 283 450 470 74 112 152 252 144 259 -3 3 -43
-28 -90 -67 -154 -131 -232 -184 -409 -283 -390 -216 -448 -262 -521 -409 -25
-50 -51 -106 -58 -125 l-12 -35 -29 35 c-44 52 -73 118 -78 175 -3 40 3 68 31
140 19 50 53 138 76 198 25 65 54 167 72 260 39 194 79 321 135 424 50 91 146
304 141 309 -2 2 -35 -17 -73 -42z"/>
<path d="M7857 12424 c-187 -45 -323 -185 -363 -373 -17 -80 -19 -351 -3 -437
13 -73 65 -185 153 -328 65 -107 96 -183 96 -236 0 -59 -59 -102 -230 -170
-285 -113 -426 -218 -497 -371 -50 -107 -48 -56 -48 -1604 l0 -1450 27 -52
c57 -107 121 -133 334 -133 l154 0 2 -517 3 -518 515 0 515 0 3 518 2 517 154
0 c216 0 278 25 333 137 l28 58 3 1405 c2 939 -1 1428 -8 1475 -15 104 -66
200 -143 271 -87 80 -149 115 -345 194 -92 37 -181 74 -198 83 -45 23 -84 73
-84 108 0 51 39 150 117 292 42 75 89 177 106 225 29 82 31 98 35 263 5 210
-6 290 -54 389 -62 130 -177 220 -326 255 -78 18 -204 18 -281 -1z"/>
<path d="M13750 11784 c0 -4 19 -102 41 -218 l42 -211 -6 -210 c-7 -214 -28
-489 -48 -625 -8 -50 -9 -144 -4 -283 7 -228 1 -277 -38 -277 -32 0 -110 87
-246 279 -262 367 -335 448 -546 606 -107 80 -247 175 -259 175 -4 0 26 -64
65 -142 80 -160 131 -273 195 -431 85 -213 230 -421 549 -787 143 -165 203
-248 260 -362 24 -49 46 -85 48 -80 2 4 12 32 22 62 40 125 130 339 204 484
121 235 142 317 161 621 21 336 9 449 -70 679 -69 200 -148 365 -292 609 -65
108 -78 127 -78 111z"/>
<path d="M2088 11688 c-187 -285 -323 -596 -362 -825 -28 -167 -40 -424 -27
-579 21 -252 66 -409 181 -629 75 -142 123 -284 142 -412 7 -46 14 -83 18 -82
3 0 19 31 37 68 43 88 111 178 213 276 127 124 336 350 413 450 89 114 139
192 215 331 103 187 303 637 290 650 -9 8 -266 -152 -381 -237 -222 -166 -529
-500 -696 -759 l-40 -61 -23 38 c-36 58 -47 89 -54 146 -5 44 -1 64 25 128 72
179 84 386 37 618 -35 169 -33 213 27 636 25 176 44 321 42 323 -1 2 -27 -34
-57 -80z"/>
<path d="M14401 9892 c-18 -60 -43 -165 -57 -233 -29 -142 -62 -217 -218 -494
-137 -242 -173 -338 -221 -580 -48 -242 -57 -265 -96 -245 -43 23 -139 277
-139 367 0 39 -39 143 -82 218 -23 38 -104 165 -182 280 -77 116 -166 258
-198 318 -81 153 -169 281 -182 266 -12 -13 33 -582 60 -769 28 -189 43 -227
231 -605 208 -419 369 -790 375 -861 l2 -24 29 28 c16 15 62 68 102 117 40 50
106 129 148 178 148 172 257 346 342 542 138 321 180 576 172 1040 -4 267 -29
565 -47 565 -4 0 -22 -49 -39 -108z"/>
<path d="M1415 9713 c-13 -391 4 -787 41 -1013 46 -277 219 -632 444 -915 74
-93 280 -305 296 -305 6 0 17 26 24 58 25 113 103 330 164 457 34 72 113 212
174 312 139 227 175 299 207 410 55 188 130 635 151 898 l6 80 -68 -95 c-128
-180 -411 -605 -481 -725 -56 -94 -84 -158 -133 -300 -34 -99 -74 -204 -89
-234 -39 -82 -107 -114 -146 -71 -15 16 -20 47 -26 164 -15 258 -43 343 -251
759 -134 269 -170 356 -198 477 -23 97 -89 280 -101 280 -4 0 -10 -107 -14
-237z"/>
<path d="M13047 8275 c-12 -53 -47 -335 -62 -494 -17 -174 -19 -394 -5 -491
27 -190 61 -517 69 -656 13 -232 -14 -572 -63 -776 -7 -32 -10 -58 -6 -58 11
0 237 156 375 260 425 319 742 638 895 900 90 155 203 484 358 1048 11 39 19
72 17 72 -1 0 -41 -57 -88 -127 -149 -225 -213 -300 -374 -438 -191 -164 -241
-219 -363 -396 -55 -80 -134 -188 -176 -240 -79 -99 -264 -302 -270 -297 -2 2
3 94 11 203 21 299 20 560 -4 661 -32 131 -212 641 -286 809 l-22 50 -6 -30z"/>
<path d="M2838 8140 c-122 -256 -232 -562 -283 -790 -51 -227 -53 -311 -19
-630 17 -159 12 -200 -26 -200 -49 0 -127 107 -351 478 -157 262 -199 313
-481 583 -214 206 -260 264 -337 418 -23 45 -44 81 -46 79 -7 -6 33 -269 60
-394 73 -346 407 -958 675 -1238 142 -148 499 -435 808 -650 70 -49 82 -54 82
-37 0 39 -40 288 -66 411 -34 161 -30 242 30 605 24 149 50 317 57 375 22 190
0 764 -40 1049 l-8 56 -55 -115z"/>
<path d="M12624 6935 c-86 -164 -323 -708 -384 -881 -59 -169 -98 -364 -145
-729 -53 -407 -86 -535 -172 -663 -24 -36 -42 -66 -41 -67 2 -2 68 5 148 15
520 65 983 194 1245 347 231 136 482 379 648 629 74 111 160 272 208 384 65
155 156 453 147 480 -2 6 -33 -29 -69 -78 -98 -128 -222 -264 -319 -349 -115
-101 -253 -191 -595 -388 -508 -294 -537 -315 -669 -479 -88 -110 -118 -136
-156 -136 -40 0 -64 32 -64 88 0 64 33 159 119 342 78 166 103 235 130 370 19
95 19 97 8 725 l-8 450 -31 -60z"/>
<path d="M3294 6788 c-1 -79 -7 -143 -18 -178 -8 -30 -21 -113 -28 -184 -22
-241 21 -829 79 -1061 8 -33 39 -118 70 -189 67 -157 73 -186 44 -215 -23 -23
-70 -28 -101 -11 -11 6 -62 61 -113 123 -196 232 -234 262 -585 446 -488 256
-501 267 -899 737 -81 95 -149 172 -150 170 -6 -6 98 -229 217 -466 138 -273
259 -485 337 -587 138 -182 391 -367 718 -523 154 -74 396 -170 490 -194 128
-33 374 -67 589 -82 109 -8 104 -12 58 56 -45 66 -114 214 -148 316 -42 129
-58 224 -84 499 -38 404 -64 569 -116 730 -23 72 -313 675 -346 718 -11 15
-13 0 -14 -105z"/>
<path d="M11560 5413 c-286 -280 -452 -464 -545 -603 -35 -52 -111 -187 -169
-298 -126 -244 -174 -317 -263 -407 -112 -113 -332 -277 -421 -314 -18 -7 -32
-17 -32 -21 0 -12 164 -23 249 -17 42 3 111 17 154 31 155 52 305 30 527 -74
171 -81 247 -94 510 -87 221 5 371 28 563 83 489 141 872 403 1106 758 55 83
131 230 131 253 0 7 -84 -43 -187 -111 -381 -249 -531 -328 -721 -379 l-117
-31 -350 -1 -350 -1 -85 -28 c-47 -15 -134 -51 -193 -78 -128 -59 -193 -69
-282 -44 -58 17 -58 17 -34 34 91 62 214 197 311 341 159 239 275 527 409
1019 27 103 53 195 55 205 3 9 1 17 -4 17 -5 0 -123 -111 -262 -247z"/>
<path d="M4175 5609 c85 -411 226 -821 369 -1073 100 -177 166 -257 326 -398
41 -36 71 -70 67 -74 -5 -5 -43 -10 -85 -12 -88 -4 -137 7 -327 72 -71 24
-184 57 -250 72 -113 27 -135 28 -380 30 -309 3 -373 8 -483 35 -198 49 -463
195 -755 416 -54 41 -101 72 -104 69 -9 -9 102 -169 230 -329 266 -334 512
-536 807 -660 236 -99 423 -136 717 -144 273 -8 363 4 789 102 246 57 369 69
604 61 l185 -7 -70 37 c-193 101 -451 299 -523 402 -23 33 -80 141 -125 239
-126 272 -198 384 -412 638 -153 181 -421 440 -554 534 l-33 24 7 -34z"/>
<path d="M9050 3694 c-307 -28 -414 -39 -580 -60 -107 -13 -266 -36 -353 -50
-144 -23 -166 -25 -250 -14 -263 33 -467 63 -597 87 -128 24 -170 27 -355 28
-367 0 -662 -50 -1266 -216 -925 -253 -1110 -274 -1479 -168 -83 24 -272 95
-389 146 -26 12 22 -58 84 -122 152 -156 493 -312 840 -383 334 -69 688 -89
1001 -57 338 35 468 82 855 310 313 185 480 258 680 300 149 31 391 45 428 25
23 -12 18 -15 -85 -72 -330 -182 -681 -389 -769 -453 -216 -157 -585 -460
-585 -480 0 -14 142 -155 155 -154 6 0 35 30 65 66 123 146 435 450 550 535
303 225 708 429 943 476 73 14 81 14 160 -5 256 -64 780 -358 1103 -619 111
-89 330 -313 403 -412 42 -56 57 -70 67 -61 35 29 126 151 118 158 -5 4 -90
75 -189 158 -324 269 -607 488 -745 575 -78 50 -264 142 -394 195 -61 25 -113
47 -116 50 -3 3 94 3 215 1 215 -5 222 -5 312 -36 151 -52 346 -154 598 -315
252 -162 376 -216 585 -254 202 -37 727 -15 1150 48 502 75 840 219 962 408
42 67 37 74 -34 42 -153 -69 -385 -129 -580 -150 -347 -38 -643 16 -1443 264
-323 100 -534 156 -691 184 -112 20 -293 32 -374 25z"/>
</g>
</svg>
